<?xml version="1.0" standalone="no"?><!DOCTYPE svg PUBLIC "-//W3C//DTD SVG 1.1//EN" "http://www.w3.org/Graphics/SVG/1.1/DTD/svg11.dtd"><svg t="1622863763175" class="icon" viewBox="0 0 1024 1024" version="1.1" xmlns="http://www.w3.org/2000/svg" p-id="1340" xmlns:xlink="http://www.w3.org/1999/xlink" width="200" height="200"><defs><style type="text/css"></style></defs><path d="M576 944h-128a16 16 0 0 1-16-16v-224a16 16 0 0 1 16-16h128a16 16 0 0 1 16 16v224a16 16 0 0 1-16 16z m-112-32h96v-192h-96v192zM511.488 382.976a62.08 62.08 0 0 1-62.016-62.016 62.08 62.08 0 0 1 62.016-62.016 62.08 62.08 0 0 1 62.016 62.016 62.08 62.08 0 0 1-62.016 62.016z m0-92.032a30.048 30.048 0 1 0 0.032 60.064 30.048 30.048 0 0 0-0.032-60.064zM816 596.352h-96a16 16 0 0 1-16-16V464a16 16 0 0 1 16-16h96a16 16 0 0 1 16 16v116.352a16 16 0 0 1-16 16z m-80-32h64V480h-64v84.352zM816 800h-96a16 16 0 0 1-16-16v-116.352a16 16 0 0 1 16-16h96a16 16 0 0 1 16 16V784a16 16 0 0 1-16 16zM736 768h64v-84.352h-64V768zM304 596.352h-96a16 16 0 0 1-16-16V464a16 16 0 0 1 16-16h96a16 16 0 0 1 16 16v116.352a16 16 0 0 1-16 16z m-80-32h64V480H224v84.352zM304 800h-96a16 16 0 0 1-16-16v-116.352a16 16 0 0 1 16-16h96a16 16 0 0 1 16 16V784a16 16 0 0 1-16 16zM224 768h64v-84.352H224V768z" fill="#FC9F42" p-id="1341"></path><path d="M927.488 944h-832a16 16 0 0 1 0-32h832a16 16 0 0 1 0 32z" fill="#304763" p-id="1342"></path><path d="M640 944h-256a16 16 0 0 1-16-16V204.512c0-4.672 2.016-9.12 5.568-12.128l126.496-108.512a16 16 0 0 1 20.704-0.128l129.504 108.512a15.904 15.904 0 0 1 5.728 12.256V928a16 16 0 0 1-16 16z m-240-32h224V212l-113.376-95.008L400 211.872V912z" fill="#304763" p-id="1343"></path><path d="M896 944h-256a16 16 0 0 1-16-16V352a16 16 0 0 1 16-16h256a16 16 0 0 1 16 16v576a16 16 0 0 1-16 16z m-240-32h224v-544h-224v544zM384 944H128a16 16 0 0 1-16-16V352a16 16 0 0 1 16-16h256a16 16 0 0 1 16 16v576a16 16 0 0 1-16 16z m-240-32h224v-544h-224v544z" fill="#304763" p-id="1344"></path><path d="M384 368H96a16.064 16.064 0 0 1-14.688-22.304l41.152-96a15.904 15.904 0 0 1 14.688-9.696H384a16 16 0 0 1 16 16v96a16 16 0 0 1-16 16z m-263.744-32H368v-64H147.68l-27.424 64zM928 368h-288a16 16 0 0 1-16-16V256a16 16 0 0 1 16-16h246.848c6.4 0 12.192 3.808 14.688 9.696l41.152 96A16.064 16.064 0 0 1 928 368z m-272-32h247.744l-27.424-64H656v64z" fill="#304763" p-id="1345"></path></svg>